<?xml version="1.0" encoding="UTF-8"?>
<svg xmlns="http://www.w3.org/2000/svg" xmlns:xlink="http://www.w3.org/1999/xlink" width="250px" height="250px" viewBox="0 0 250 250" version="1.1">
<g id="surface1">
<path style=" stroke:none;fill-rule:nonzero;fill:rgb(13.725491%,12.156863%,12.54902%);fill-opacity:1;" d="M 247.789062 125 C 247.789062 192.816406 192.8125 247.789062 125 247.789062 C 57.183594 247.789062 2.207031 192.8125 2.207031 125 C 2.210938 57.183594 57.183594 2.210938 125 2.210938 C 192.816406 2.207031 247.792969 57.183594 247.789062 125 "/>
<path style=" stroke:none;fill-rule:nonzero;fill:rgb(0%,90.588236%,0.392157%);fill-opacity:1;" d="M 125 250 C 65.542969 249.964844 14.335938 208.066406 2.53125 149.792969 C -9.273438 91.523438 21.589844 32.996094 76.34375 9.824219 C 139.902344 -16.8125 213.03125 13 239.847656 76.480469 C 266.667969 139.964844 237.0625 213.175781 173.65625 240.175781 C 158.261719 246.691406 141.714844 250.03125 125 250 M 125 4.421875 C 58.40625 4.421875 4.417969 58.40625 4.417969 125 C 4.417969 191.59375 58.402344 245.582031 125 245.582031 C 191.59375 245.582031 245.578125 191.597656 245.578125 125 C 245.503906 58.4375 191.5625 4.496094 125 4.421875 "/>
<path style=" stroke:none;fill-rule:nonzero;fill:rgb(100%,100%,100%);fill-opacity:1;" d="M 79.648438 189.363281 C 78.730469 189.316406 77.828125 189.632812 77.140625 190.25 C 76.550781 190.789062 76.214844 191.558594 76.222656 192.359375 C 76.164062 193.007812 76.371094 193.652344 76.800781 194.140625 C 77.777344 194.851562 78.847656 195.429688 79.976562 195.859375 C 81.339844 196.367188 82.558594 197.203125 83.527344 198.292969 C 84.238281 199.402344 84.574219 200.710938 84.484375 202.027344 C 84.632812 204.390625 83.710938 206.695312 81.976562 208.304688 C 80.074219 209.855469 77.664062 210.640625 75.214844 210.507812 C 74.015625 210.503906 72.816406 210.378906 71.640625 210.144531 C 70.652344 209.96875 69.675781 209.730469 68.71875 209.425781 L 67.710938 209.027344 L 68.539062 205.453125 C 70.648438 205.871094 72.792969 206.109375 74.941406 206.175781 C 76.136719 206.265625 77.328125 205.984375 78.355469 205.363281 C 79.136719 204.675781 79.542969 203.648438 79.433594 202.605469 C 79.472656 202.003906 79.242188 201.414062 78.804688 201 C 77.84375 200.324219 76.808594 199.761719 75.71875 199.324219 C 74.375 198.789062 73.175781 197.949219 72.21875 196.867188 C 71.460938 195.78125 71.09375 194.472656 71.171875 193.152344 C 71.101562 190.996094 71.925781 188.90625 73.445312 187.375 C 75.070312 185.820312 77.261719 184.996094 79.507812 185.105469 C 80.722656 185.113281 81.9375 185.226562 83.132812 185.449219 C 84.113281 185.613281 85.085938 185.835938 86.039062 186.117188 L 87.046875 186.476562 L 86.144531 190.011719 C 84 189.628906 81.828125 189.414062 79.644531 189.363281 M 83.339844 210.070312 L 94.382812 185.539062 L 102.96875 185.539062 L 102.210938 210.070312 L 97.234375 210.070312 L 97.375 205.8125 L 90.230469 205.8125 L 88.320312 210.070312 Z M 97.308594 189.871094 L 92.113281 201.488281 L 97.558594 201.488281 L 98.058594 189.871094 Z M 109.925781 201.738281 C 109.722656 202.546875 109.613281 203.378906 109.601562 204.210938 C 109.539062 204.824219 109.824219 205.414062 110.339844 205.746094 C 111.160156 206.097656 112.050781 206.246094 112.9375 206.175781 C 113.96875 206.253906 114.980469 205.894531 115.734375 205.1875 C 116.515625 204.183594 117.023438 202.996094 117.210938 201.738281 L 120.960938 185.542969 L 125.941406 185.542969 L 122.191406 201.738281 C 121.785156 204.273438 120.59375 206.613281 118.785156 208.433594 C 117.027344 209.878906 114.796875 210.621094 112.523438 210.511719 C 107.28125 210.511719 104.65625 208.65625 104.65625 204.953125 C 104.667969 203.605469 104.828125 202.265625 105.125 200.953125 L 108.699219 185.546875 L 113.679688 185.546875 Z M 137.796875 185.542969 C 142.078125 185.542969 144.21875 187.308594 144.222656 190.847656 C 144.277344 192.203125 143.925781 193.546875 143.210938 194.703125 C 142.414062 195.832031 141.378906 196.769531 140.179688 197.453125 C 140.96875 197.859375 141.621094 198.484375 142.054688 199.257812 C 142.394531 200.03125 142.550781 200.867188 142.523438 201.710938 C 142.585938 203.976562 141.671875 206.15625 140.015625 207.703125 C 138.03125 209.398438 135.460938 210.25 132.855469 210.078125 L 123.617188 210.078125 L 129.28125 185.542969 Z M 135.054688 199.792969 L 130.984375 199.792969 L 129.574219 205.816406 L 133.824219 205.816406 C 134.816406 205.855469 135.773438 205.445312 136.425781 204.699219 C 137.09375 203.890625 137.441406 202.863281 137.398438 201.8125 C 137.398438 200.464844 136.617188 199.792969 135.050781 199.792969 M 137 189.792969 L 133.285156 189.792969 L 131.910156 195.640625 L 135.625 195.640625 C 136.570312 195.660156 137.476562 195.269531 138.113281 194.578125 C 138.800781 193.835938 139.164062 192.859375 139.125 191.851562 C 139.199219 191.273438 138.996094 190.695312 138.578125 190.292969 C 138.160156 189.886719 137.574219 189.703125 137 189.792969 M 143.21875 210.070312 L 148.84375 185.539062 L 163.238281 185.539062 L 162.230469 189.867188 L 152.855469 189.867188 L 151.523438 195.640625 L 158.953125 195.640625 L 157.945312 199.96875 L 150.546875 199.96875 L 149.21875 205.746094 L 158.636719 205.746094 L 157.660156 210.078125 Z M 172.910156 185.542969 C 174.960938 185.375 177 185.957031 178.648438 187.183594 C 179.984375 188.5625 180.65625 190.449219 180.488281 192.359375 C 180.5625 194.441406 180.023438 196.496094 178.9375 198.273438 C 178.011719 199.773438 176.636719 200.933594 175.003906 201.597656 L 176.988281 210.074219 L 172.011719 210.074219 L 170.386719 202.28125 L 166.957031 202.28125 L 165.152344 210.074219 L 160.171875 210.074219 L 165.839844 185.542969 Z M 174.230469 196.472656 C 174.96875 195.484375 175.371094 194.28125 175.363281 193.046875 C 175.460938 192.148438 175.246094 191.242188 174.753906 190.484375 C 174.171875 189.964844 173.402344 189.714844 172.628906 189.796875 L 169.84375 189.796875 L 167.929688 198.023438 L 171.140625 198.023438 C 172.367188 198.0625 173.527344 197.476562 174.226562 196.472656 "/>
<path style=" stroke:none;fill-rule:evenodd;fill:rgb(0%,90.588236%,0.392157%);fill-opacity:1;" d="M 69.609375 43.195312 L 111.320312 43.195312 L 111.320312 71.003906 L 125.222656 71.003906 L 125.222656 57.101562 L 139.125 57.101562 L 139.125 43.195312 L 180.835938 43.195312 L 180.835938 84.90625 L 166.933594 84.90625 L 166.933594 98.8125 L 153.03125 98.8125 L 153.03125 112.714844 L 166.933594 112.714844 L 166.933594 126.621094 L 180.835938 126.621094 L 180.835938 168.332031 L 139.125 168.332031 L 139.125 154.425781 L 125.222656 154.425781 L 125.222656 140.519531 L 111.320312 140.519531 L 111.320312 168.328125 L 69.609375 168.328125 Z M 69.609375 43.195312 "/>
</g>
</svg>
